<svg xmlns="http://www.w3.org/2000/svg" width="32" height="32" viewBox="0 0 32 32" fill="none">
  <path d="M29.8842 6.14125C30.2483 5.51881 30.1132 4.73 29.5769 4.26L27.8269 2.885C27.2906 2.415 26.5018 2.55 26.1377 3.17244L16.4533 19.3112L11.2011 12.4237C10.7659 11.8525 9.96233 11.7675 9.42615 12.2375L7.80115 13.7375C7.26496 14.2075 7.18508 15.0112 7.62027 15.5825L15.6203 26.3325C16.0554 26.9037 16.859 26.9887 17.3952 26.5187C17.9315 26.0487 30.1132 8.07244 29.8842 6.14125Z" fill="#646CFF"/>
  <path d="M2 15.5C2 14.6716 2.67157 14 3.5 14H12.5C13.3284 14 14 14.6716 14 15.5C14 16.3284 13.3284 17 12.5 17H3.5C2.67157 17 2 16.3284 2 15.5Z" fill="#646CFF"/>
</svg>